<svg width="22" height="22" viewBox="0 0 22 22" fill="none" xmlns="http://www.w3.org/2000/svg">
<path fill-rule="evenodd" clip-rule="evenodd" d="M22 11C22 17.0751 17.0751 22 11 22C4.92487 22 0 17.0751 0 11C0 4.92487 4.92487 0 11 0C17.0751 0 22 4.92487 22 11ZM13.0625 4.12217H8.82475C6.886 4.12217 5.06069 5.48273 5.06069 7.1836C5.06069 8.9216 6.38206 10.2732 8.3545 10.2732C8.43711 10.2732 8.51823 10.2621 8.59816 10.2511C8.65127 10.2437 8.70386 10.2365 8.756 10.2327C8.62675 10.4767 8.53738 10.7394 8.53738 11.026C8.53738 11.5094 8.79656 11.895 9.1245 12.2147C9.00335 12.2147 8.88337 12.2156 8.76152 12.2164L8.76132 12.2164C8.63568 12.2173 8.50806 12.2182 8.37513 12.2182C5.97369 12.2189 4.125 13.7472 4.125 15.3332C4.125 16.8952 6.15175 17.8735 8.55319 17.8735C11.2915 17.8735 12.804 16.3184 12.804 14.7564C12.804 13.5045 12.4341 12.7537 11.2922 11.9439C10.901 11.6682 10.1537 10.9951 10.1537 10.5991C10.1537 10.1357 10.2857 9.90748 10.9842 9.3616C11.6985 8.80335 12.2052 8.13717 12.2052 7.22279C12.2052 6.13585 11.7377 4.80967 10.8281 4.80967H12.375L13.0625 4.12217ZM11.6401 14.4855C11.6731 14.6313 11.693 14.7805 11.693 14.9317C11.693 16.194 10.8783 17.1805 8.54425 17.1805C6.88394 17.1805 5.68563 16.13 5.68563 14.8678C5.68563 13.631 7.17269 12.6004 8.83369 12.619C9.22006 12.6231 9.58169 12.6857 9.90894 12.7902C10.0248 12.8709 10.1365 12.947 10.2435 13.02C10.9688 13.5148 11.4801 13.8637 11.6401 14.4855ZM8.98081 9.77685C7.86638 9.74454 6.80694 8.53042 6.61513 7.0681C6.42331 5.60373 7.17063 4.48379 8.28438 4.51679C9.39813 4.55117 10.4583 5.72542 10.6501 7.18842C10.8426 8.65142 10.0953 9.80985 8.98081 9.77685ZM16.5 9.61631V7.55381H15.125V9.61631H13.0625V10.9913H15.125V13.0538H16.5V10.9913H18.5625V9.61631H16.5Z" fill="#333533"/>
</svg>
