<svg width="32" height="32" viewBox="0 0 32 32" fill="none" xmlns="http://www.w3.org/2000/svg">
<path d="M6.44444 13.8578C9.00444 18.8889 13.12 23.0044 18.16 25.5644L22.0711 21.6444C22.56 21.1556 23.2622 21.0133 23.8756 21.2089C25.8667 21.8667 28.0089 22.2222 30.2222 22.2222C31.2089 22.2222 32 23.0133 32 24V30.2222C32 31.2089 31.2089 32 30.2222 32C13.5289 32 0 18.4711 0 1.77778C0 0.791111 0.8 0 1.77778 0H8C8.98667 0 9.77778 0.791111 9.77778 1.77778C9.77778 3.99111 10.1333 6.13333 10.7911 8.12444C10.9867 8.73778 10.8444 9.44 10.3556 9.92889L6.44444 13.8578V13.8578Z" fill="#FF7B00"/>
</svg>
