<svg width="22" height="22" viewBox="0 0 22 22" fill="none" xmlns="http://www.w3.org/2000/svg">
<path fill-rule="evenodd" clip-rule="evenodd" d="M22 11C22 4.9258 17.0742 0 11 0C4.9258 0 0 4.9258 0 11C0 17.0742 4.9258 22 11 22C17.0742 22 22 17.0742 22 11ZM16.4756 8.56006C16.4756 12.2891 13.6354 16.5879 8.44775 16.5879V16.5857C6.91655 16.5879 5.41395 16.1479 4.12915 15.3185C4.35135 15.3471 4.57575 15.3603 4.80015 15.3603C6.06955 15.3625 7.30375 14.9357 8.30255 14.1503C7.09475 14.1261 6.03655 13.3385 5.66695 12.1901C6.08935 12.2715 6.52495 12.2539 6.94075 12.1417C5.62295 11.8755 4.67695 10.7183 4.67695 9.37626V9.34106C5.06855 9.55886 5.50855 9.67986 5.95735 9.69306C4.71655 8.86366 4.33595 7.21586 5.08395 5.92666C6.51615 7.68886 8.63035 8.76026 10.8986 8.87466C10.672 7.89566 10.9822 6.86826 11.7148 6.17966C12.85 5.11266 14.6364 5.16766 15.7056 6.30286C16.337 6.17966 16.942 5.94646 17.4964 5.61866C17.2852 6.27206 16.8452 6.82646 16.2556 7.17846C16.8144 7.11246 17.36 6.96286 17.8748 6.73406C17.4964 7.30166 17.019 7.79446 16.4668 8.19486C16.4756 8.31586 16.4756 8.43906 16.4756 8.56006Z" fill="#333533"/>
</svg>
