<svg width="22" height="22" viewBox="0 0 22 22" fill="#FF7B00" xmlns="http://www.w3.org/2000/svg">
<path fill-rule="evenodd" clip-rule="evenodd" d="M11 22C4.92486 22 0 17.0751 0 11C0 4.92486 4.92486 0 11 0C17.0751 0 22 4.92486 22 11C22 17.0751 17.0751 22 11 22ZM10.6685 16.4916H12.7125C12.7137 16.448 12.7197 16.407 12.7197 16.364C12.7197 12.4445 9.54134 9.27721 5.59543 9.27721C5.56755 9.27721 5.53889 9.28155 5.51087 9.28224V11.3129C5.53889 11.3125 5.56755 11.3088 5.59543 11.3088C8.41414 11.3088 10.6749 13.5643 10.6749 16.364C10.6749 16.407 10.6695 16.448 10.6685 16.4916ZM7.05491 16.5C7.91429 16.5 8.60973 15.8097 8.60973 14.956C8.60973 14.1032 7.91429 13.4115 7.05491 13.4115C6.19644 13.4115 5.5 14.1032 5.5 14.956C5.5 15.8097 6.19644 16.5 7.05491 16.5ZM5.59543 5.5C5.56755 5.5 5.53889 5.50232 5.51087 5.50232V7.53298C5.53889 7.53298 5.56755 7.53057 5.59543 7.53057C10.4576 7.53057 14.4556 11.5344 14.4556 16.364C14.4556 16.4063 14.4529 16.4486 14.4522 16.4916H16.4966C16.4973 16.4486 16.5 16.4063 16.5 16.364C16.5 10.4155 11.5851 5.5 5.59543 5.5Z" fill="#333533"/>
</svg>
