<svg width="43" height="38" viewBox="0 0 43 38" fill="none" xmlns="http://www.w3.org/2000/svg">
<path fill-rule="evenodd" clip-rule="evenodd" d="M39.1806 24.7333C41.0472 22.2444 42.1361 19.1333 42.1361 15.7111C41.9806 7 34.825 0 25.9583 0C17.0917 0 9.93613 7 9.93613 15.7111C9.93613 24.4222 17.0917 31.4222 25.9583 31.4222C29.0695 31.4222 32.025 30.4889 34.5139 29.0889L42.6028 32.6667L39.1806 24.7333Z" fill="#246FB3"/>
<path fill-rule="evenodd" clip-rule="evenodd" d="M10.8694 17.1113C5.42498 17.1113 0.913864 21.4669 0.913864 26.9113C0.913864 28.9335 1.53609 30.9558 2.78053 32.5113L0.602753 37.3336L5.58053 35.1558C7.13609 36.0891 8.8472 36.7113 10.8694 36.7113C16.3139 36.7113 20.825 32.3558 20.825 26.9113C20.825 21.4669 16.3139 17.1113 10.8694 17.1113Z" fill="#FF7B00"/>
</svg>
