<svg width="29" height="29" viewBox="0 0 29 29" fill="none" xmlns="http://www.w3.org/2000/svg">
<path d="M24.9272 9.4239C24.1983 8.91522 22.801 9.49279 21.9862 10.911C21.652 11.5626 21.3862 12.2465 21.1935 12.951C20.9137 12.8271 20.6929 12.5998 20.5747 12.3138C19.9044 10.6789 17.624 5.11032 17.0463 3.57144C16.9926 3.41634 16.9089 3.27447 16.8002 3.15394C16.6915 3.03341 16.5597 2.93658 16.4126 2.86898C16.2654 2.80138 16.1056 2.76433 15.9424 2.75994C15.7791 2.75556 15.6156 2.78392 15.4612 2.84342C15.3068 2.90292 15.1644 2.99239 15.0423 3.10672C14.9202 3.22104 14.8207 3.35799 14.7495 3.50974C14.6783 3.66149 14.6368 3.82506 14.6273 3.99113C14.6179 4.1572 14.6407 4.3225 14.6944 4.4776C15.6004 7.6131 16.1559 9.81365 16.1559 9.81365L15.4569 10.1026C15.4569 10.1026 14.1737 7.39159 12.6236 3.98264C11.7938 2.15336 9.68084 3.30878 10.2939 4.94671C10.9069 6.58464 12.4257 11.3554 12.4257 11.3554L11.7273 11.6445C11.7273 11.6445 10.073 7.94806 9.22645 6.40769C8.37986 4.86731 6.60421 5.87275 7.21771 7.50923L9.33951 13.1726L8.72834 13.6956C8.72834 13.6956 7.79429 11.9218 6.5977 9.44663C5.8292 7.86328 3.88675 8.67733 4.50072 10.314C5.11469 11.9506 6.3113 14.4242 8.50054 20.2707C10.0776 24.4784 13.0225 27.3107 19.0801 24.8041C24.4385 22.587 24.0266 17.8965 24.4906 15.5443C24.9459 13.2456 25.9576 10.143 24.9272 9.4239V9.4239Z" fill="#FFD3AA"/>
<path d="M24.9734 9.46693C24.7452 9.3219 24.4719 9.26391 24.2005 9.30296C24.2126 10.5611 23.6536 12.4639 23.3515 13.9952C22.904 16.264 23.3016 20.7876 18.1332 22.9262C12.2911 25.3435 10.8589 21.2324 8.58774 20.2866C10.1612 24.4844 13.0994 27.31 19.1428 24.8092C24.4888 22.5973 24.0778 17.9178 24.5407 15.5711C24.9922 13.2796 26.0015 10.1843 24.9734 9.46693V9.46693Z" fill="#FFD3AA"/>
<path d="M24.9272 9.4239C24.1983 8.91522 22.801 9.49279 21.9862 10.911C21.652 11.5626 21.3862 12.2465 21.1935 12.951C20.9137 12.8271 20.6929 12.5998 20.5747 12.3138C19.9044 10.6789 17.624 5.11032 17.0463 3.57144C16.9926 3.41634 16.9089 3.27447 16.8002 3.15394C16.6915 3.03341 16.5597 2.93658 16.4126 2.86898C16.2654 2.80138 16.1056 2.76433 15.9424 2.75994C15.7791 2.75556 15.6156 2.78392 15.4612 2.84342C15.3068 2.90292 15.1644 2.99239 15.0423 3.10672C14.9202 3.22104 14.8207 3.35799 14.7495 3.50974C14.6783 3.66149 14.6368 3.82506 14.6273 3.99113C14.6179 4.1572 14.6407 4.3225 14.6944 4.4776C15.6004 7.6131 16.1559 9.81365 16.1559 9.81365L15.4569 10.1026C15.4569 10.1026 14.1737 7.39159 12.6236 3.98264C11.7938 2.15336 9.68084 3.30878 10.2939 4.94671C10.9069 6.58464 12.4257 11.3554 12.4257 11.3554L11.7273 11.6445C11.7273 11.6445 10.073 7.94806 9.22645 6.40769C8.37986 4.86731 6.60421 5.87275 7.21771 7.50923L9.33951 13.1726L8.72834 13.6956C8.72834 13.6956 7.79429 11.9218 6.5977 9.44663C5.8292 7.86328 3.88675 8.67733 4.50072 10.314C5.11469 11.9506 6.3113 14.4242 8.50054 20.2707C10.0776 24.4784 13.0225 27.3107 19.0801 24.8041C24.4385 22.587 24.0266 17.8965 24.4906 15.5443C24.9459 13.2456 25.9576 10.143 24.9272 9.4239V9.4239Z" stroke="white" stroke-width="0.6" stroke-linecap="round" stroke-linejoin="round"/>
<path d="M3.81259 19.0894C3.27306 18.3714 2.87538 17.5518 2.64052 16.674M21.1408 12.9451C20.5685 14.4387 18.6195 14.9758 17.7483 16.954L21.1408 12.9451ZM19.9399 4.74564C20.5052 5.49772 20.9219 6.35616 21.168 7.27569L19.9399 4.74564ZM21.3586 4.39795C21.7825 4.962 22.095 5.60583 22.2797 6.29548L21.3586 4.39795ZM5.61888 18.645C4.89973 17.6876 4.3694 16.5951 4.05579 15.4249L5.61888 18.645Z" stroke="white" stroke-width="0.6" stroke-linecap="round" stroke-linejoin="round"/>
</svg>
