<svg width="22" height="22" viewBox="0 0 22 22" fill="none" xmlns="http://www.w3.org/2000/svg">
<path fill-rule="evenodd" clip-rule="evenodd" d="M17.1736 16.1836V11.8892C17.1736 9.58833 15.9452 8.51767 14.3077 8.51767C12.9862 8.51767 12.3941 9.24477 12.0641 9.7548V8.69367H9.5744C9.6074 9.39657 9.5744 16.1836 9.5744 16.1836H12.0641V12.0006C12.0641 11.7773 12.0802 11.5537 12.1462 11.3938C12.3259 10.9465 12.7354 10.4834 13.4229 10.4834C14.3242 10.4834 14.6843 11.1701 14.6843 12.1766V16.1839H17.1736V16.1836ZM6.95163 7.6714C7.81953 7.6714 8.36037 7.09573 8.36037 6.3767C8.34423 5.64227 7.81953 5.0831 6.96813 5.0831C6.11673 5.0831 5.55977 5.6419 5.55977 6.3767C5.55977 7.09573 6.10023 7.6714 6.93587 7.6714H6.95163ZM11 22C4.92507 22 0 17.0749 0 11C0 4.9247 4.92507 0 11 0C17.0749 0 22 4.9247 22 11C22 17.0749 17.0749 22 11 22ZM8.19647 16.1836V8.69367H5.70717V16.1836H8.19647Z" fill="#333533"/>
</svg>
