<svg width="32" height="33" viewBox="0 0 32 33" fill="none" xmlns="http://www.w3.org/2000/svg">
<path fill-rule="evenodd" clip-rule="evenodd" d="M2.55663 24.6754C0.93979 22.176 0 19.1966 0 16C0 7.16968 7.16968 0 16 0C24.8303 0 32 7.16968 32 16C32 24.8303 24.8303 32 16 32C13.0072 32 10.2063 31.1764 7.80968 29.7448L0 32.3469L2.55663 24.6754V24.6754Z" fill="#F3F3F3"/>
<path fill-rule="evenodd" clip-rule="evenodd" d="M5.5473 23.4193C4.05509 21.3241 3.17761 18.7624 3.17761 15.997C3.17761 8.9216 8.92245 3.17676 15.9978 3.17676C23.0732 3.17676 28.818 8.9216 28.818 15.997C28.818 23.0723 23.0732 28.8155 15.9978 28.8155C13.3199 28.8155 10.834 27.9936 8.77593 26.5873L3.95572 28.194L5.5473 23.4193V23.4193Z" fill="#FF7B00"/>
<path fill-rule="evenodd" clip-rule="evenodd" d="M12.1495 19.327C10.2564 17.0129 8.99328 14.18 8.59749 11.108C8.49139 10.2525 8.77602 9.39351 9.37391 8.77204C9.97181 8.15056 10.819 7.83225 11.6779 7.90467L11.7604 7.91309C11.7604 7.91309 12.7053 8.16572 13.2223 8.30551C13.4278 8.36109 13.5912 8.51435 13.6602 8.71477C13.8926 9.4053 14.4417 11.0272 14.7011 11.7901C14.7853 12.0377 14.7078 12.3122 14.5091 12.4807C14.1166 12.8108 13.4682 13.3565 13.064 13.6984C12.8468 13.8819 12.7777 14.1868 12.8956 14.4445C13.3655 15.4685 13.9651 16.4251 14.6758 17.2908C15.4068 18.1362 16.2472 18.8891 17.1769 19.5257C17.4127 19.6857 17.7242 19.6689 17.9415 19.4853C18.3474 19.1451 18.9958 18.5994 19.3865 18.2693C19.587 18.1009 19.8699 18.0722 20.1007 18.1969C20.808 18.5809 22.3137 19.396 22.9537 19.743C23.1406 19.844 23.2653 20.0327 23.2838 20.2432C23.3327 20.7771 23.4236 21.7506 23.4236 21.7506L23.4169 21.8331C23.3428 22.692 22.8863 23.4735 22.1722 23.9569C21.4581 24.4419 20.5638 24.5767 19.7385 24.3274C16.7541 23.4095 14.1588 21.6647 12.195 19.3809L12.1495 19.327Z" fill="#F3F3F3"/>
</svg>
