<svg width="25" height="25" viewBox="0 0 25 25" fill="none" xmlns="http://www.w3.org/2000/svg">
<path fill-rule="evenodd" clip-rule="evenodd" d="M2.52026 18.5065C1.30763 16.632 0.602783 14.3975 0.602783 12C0.602783 5.37726 5.98005 0 12.6028 0C19.2255 0 24.6028 5.37726 24.6028 12C24.6028 18.6227 19.2255 24 12.6028 24C10.3582 24 8.25752 23.3823 6.46005 22.3086L0.602783 24.2602L2.52026 18.5065V18.5065Z" fill="#F3F3F3"/>
<path fill-rule="evenodd" clip-rule="evenodd" d="M4.76323 17.5647C3.64407 15.9933 2.98596 14.0721 2.98596 11.998C2.98596 6.69144 7.29459 2.38281 12.6011 2.38281C17.9076 2.38281 22.2163 6.69144 22.2163 11.998C22.2163 17.3045 17.9076 21.6119 12.6011 21.6119C10.5927 21.6119 8.72828 20.9954 7.1847 19.9407L3.56954 21.1458L4.76323 17.5647V17.5647Z" fill="#00A82D"/>
<path fill-rule="evenodd" clip-rule="evenodd" d="M9.7149 14.4952C8.29511 12.7597 7.34774 10.635 7.0509 8.33103C6.97132 7.68934 7.1848 7.04513 7.63322 6.57903C8.08164 6.11292 8.71701 5.87419 9.36122 5.9285L9.42311 5.93482C9.42311 5.93482 10.1317 6.12429 10.5195 6.22913C10.6736 6.27082 10.7962 6.38576 10.848 6.53608C11.0223 7.05398 11.4341 8.2704 11.6286 8.84261C11.6917 9.02829 11.6336 9.23419 11.4846 9.3605C11.1903 9.60808 10.704 10.0173 10.4008 10.2738C10.2378 10.4114 10.1861 10.6401 10.2745 10.8333C10.6269 11.6013 11.0766 12.3188 11.6096 12.9681C12.1578 13.6022 12.7882 14.1668 13.4854 14.6443C13.6623 14.7643 13.896 14.7517 14.0589 14.614C14.3633 14.3588 14.8496 13.9496 15.1427 13.702C15.293 13.5757 15.5052 13.5542 15.6783 13.6477C16.2088 13.9357 17.3381 14.547 17.8181 14.8072C17.9583 14.883 18.0517 15.0245 18.0656 15.1824C18.1023 15.5828 18.1705 16.3129 18.1705 16.3129L18.1654 16.3748C18.1098 17.019 17.7675 17.6051 17.232 17.9677C16.6964 18.3314 16.0256 18.4325 15.4067 18.2456C13.1684 17.5571 11.2218 16.2485 9.74901 14.5357L9.7149 14.4952Z" fill="#F3F3F3"/>
</svg>
